<svg id="Layer_1" data-name="Layer 1" xmlns="http://www.w3.org/2000/svg" viewBox="0 0 32 32"><defs><style>.cls-1{fill:#f96f23;}</style></defs><title>ATC_DEL</title><rect class="cls-1" width="32" height="32"/><path d="M7.76,5.31h7.42a11.26,11.26,0,0,1,4.48.85,7.73,7.73,0,0,1,3.09,2.3,10.32,10.32,0,0,1,1.7,3.21,12.14,12.14,0,0,1,.56,3.7,12.48,12.48,0,0,1-.32,2.81,10.16,10.16,0,0,1-1.06,2.7,8.84,8.84,0,0,1-1.87,2.33,8.67,8.67,0,0,1-2.85,1.61,11.39,11.39,0,0,1-3.85.62H7.76Zm7.76,16a4.22,4.22,0,0,0,3.71-1.77,7,7,0,0,0,1.24-4.13,7.24,7.24,0,0,0-1.2-4.14,3.89,3.89,0,0,0-3.43-1.78H12.13V21.27Z"/></svg>