<svg id="Layer_1" data-name="Layer 1" xmlns="http://www.w3.org/2000/svg" viewBox="0 0 32 32"><defs><style>.cls-1{fill:#2ef923;}</style></defs><title>ATC_GND</title><rect class="cls-1" width="32" height="32"/><path d="M16.8,25.78a8.78,8.78,0,0,1-4-.88A7.24,7.24,0,0,1,10,22.53a11.28,11.28,0,0,1-1.57-3.3,13.85,13.85,0,0,1-.53-3.86,12.77,12.77,0,0,1,.54-3.69,12.13,12.13,0,0,1,1.6-3.32,7.69,7.69,0,0,1,2.8-2.46A8.27,8.27,0,0,1,16.8,5,7.37,7.37,0,0,1,21.19,6.2a11.88,11.88,0,0,1,3,3.37l-3.83,2.15C19.32,10,18.12,9.16,16.8,9.16a3.56,3.56,0,0,0-2.59,1,5.14,5.14,0,0,0-1.39,2.34,10.78,10.78,0,0,0-.36,2.84,8.44,8.44,0,0,0,1.08,4.42,3.56,3.56,0,0,0,3.26,1.79,3.18,3.18,0,0,0,2.16-.8,2.44,2.44,0,0,0,.92-1.87v-.14H16.6V14.6h7.76v3.16a8,8,0,0,1-2.11,5.89A7.35,7.35,0,0,1,16.8,25.78Z"/></svg>