<svg id="Layer_1" data-name="Layer 1" xmlns="http://www.w3.org/2000/svg" viewBox="0 0 32 32"><defs><style>.cls-1{fill:#e51515;}.cls-2{fill:#fff;}</style></defs><title>ATC_CTR</title><rect class="cls-1" width="32" height="32"/><path class="cls-2" d="M16.8,25.72a8.43,8.43,0,0,1-4-.9,6.88,6.88,0,0,1-2.66-2.43,11.45,11.45,0,0,1-1.39-3.28,15,15,0,0,1-.45-3.74,13.72,13.72,0,0,1,.46-3.55,12.64,12.64,0,0,1,1.41-3.3A7,7,0,0,1,12.85,6a7.94,7.94,0,0,1,4-1,7.75,7.75,0,0,1,4.66,1.4,7.86,7.86,0,0,1,2.73,3.42l-3.91,1.76a7.42,7.42,0,0,0-1.6-1.81,3,3,0,0,0-1.88-.58,3.22,3.22,0,0,0-1.87.56,3.69,3.69,0,0,0-1.23,1.5,8.74,8.74,0,0,0-.64,2,11.43,11.43,0,0,0-.2,2.14,10.33,10.33,0,0,0,.39,2.88,5.43,5.43,0,0,0,1.32,2.31,3,3,0,0,0,2.23,1c1.25,0,2.39-.87,3.42-2.59l4,1.49Q21.78,25.73,16.8,25.72Z"/></svg>