<svg id="Layer_1" data-name="Layer 1" xmlns="http://www.w3.org/2000/svg" viewBox="0 0 164 164"><defs><style>.cls-1{fill:#ef740f;}</style></defs><title>Icon</title><path class="cls-1" d="M57.52,118.08l-2,.71A4.92,4.92,0,0,1,49,113.43l.32-2.1a20,20,0,0,1,4.45-9.91l52.85-63.16A36.78,36.78,0,0,1,121,27.77h0a4.4,4.4,0,0,1,6,5h0a36.89,36.89,0,0,1-7.78,16L66.21,112A20.17,20.17,0,0,1,57.52,118.08Z"/><polygon class="cls-1" points="119.22 111.03 97.98 74.29 85.43 63.79 45.95 49.42 41.15 55.16 74.47 76.67 87.02 87.17 114.51 116.53 119.22 111.03"/><polygon class="cls-1" points="77.51 132.74 64.28 109.86 56.47 103.32 31.89 94.37 28.9 97.94 49.64 111.34 57.46 117.88 74.58 136.16 77.51 132.74"/></svg>