<svg id="Layer_1" data-name="Layer 1" xmlns="http://www.w3.org/2000/svg" viewBox="0 0 752 148"><defs><style>.cls-1{fill:#00f98e;}.cls-2{fill:#00331c;}</style></defs><path d="M191.47,32.64Q172,32.64,172,47.31q0,8.17,4.47,11.22t18.17,6.1q13.69,3.06,19.41,7.92t5.71,16q0,27.65-28.69,27.65A161.05,161.05,0,0,1,167.33,114l-4.67-.65,1-8.31q17.64,2.34,26.87,2.34,19.2,0,19.2-18,0-7.27-4.21-10.45t-15.77-5.38q-15.19-3.25-21.55-8.38T161.88,48q0-24.15,28.94-24.15a159.43,159.43,0,0,1,22.72,2l4.41.65L217,34.85Q199,32.65,191.47,32.64Z"/><path d="M235.34,35.5V24.2h9.74V35.5Zm0,79.56V50.16h9.74v64.9Z"/><path d="M273.5,115.06h-9.73V50.16h9.6v4.55q9.74-5.85,18.95-5.85,12.07,0,16.87,6.62a47.78,47.78,0,0,1,11.1-4.6,43.17,43.17,0,0,1,12-2q13,0,17.45,7t4.48,25v34.27H344.5v-34q0-13.5-2.6-18.49t-11-5A33.72,33.72,0,0,0,322,58.79a46.13,46.13,0,0,0-7,2.4l-2.46,1.17q1.68,4.29,1.69,19v33.75h-9.74V81.57q0-14-2.53-19t-11.1-5a31.14,31.14,0,0,0-8.5,1.23,41.28,41.28,0,0,0-6.68,2.4l-2.21,1.17Z"/><path d="M420.3,26.8h18.81l-20.5,88.26h-33.1L365,26.8h18.82l15.32,72.68H405Z"/><path d="M462.93,98.64q3,2.65,8.76,2.66,12.07,0,21.55-.78l3.63-.39.26,12.85a115.34,115.34,0,0,1-27,3.64q-14.67,0-21.29-7.79t-6.62-25.31q0-34.92,28.68-34.91,28.3,0,28.3,29.33L497.91,90H459.75Q459.89,96,462.93,98.64Zm19.15-21.87q0-7.78-2.47-10.84T471,62.88q-6.17,0-8.7,3.18t-2.66,10.71Z"/><path d="M535.94,48.61a93,93,0,0,1,17.26,2.07l3.51.78-.52,13.76q-10.26-1-15.19-1-9,0-11.87,3.83t-2.92,14.47q0,10.65,2.92,14.6t12,4l15.06-1,.52,13.89q-13.89,2.73-21.16,2.73-14.4,0-20.7-8.12t-6.3-26q0-17.91,6.49-25.89T535.94,48.61Z"/><path d="M605.51,65h-16V91.57a52.61,52.61,0,0,0,.2,5.51,4.43,4.43,0,0,0,1.43,2.79A5.37,5.37,0,0,0,595,101l9.87-.26.78,13.89a66,66,0,0,1-13.24,2q-11.68,0-16-5.26T572.15,92V65h-7.66V50.16h7.66v-18h17.39v18h16Z"/><path d="M620.3,57.5q6.88-8.89,23-8.89t23,8.89q6.88,8.88,6.88,25,0,34.14-29.85,34.14T613.43,82.48Q613.43,66.38,620.3,57.5Zm13.44,39.65q2.65,4.66,9.54,4.67t9.54-4.67q2.65-4.68,2.66-14.67t-2.66-14.54q-2.67-4.53-9.54-4.54t-9.54,4.54q-2.67,4.55-2.66,14.54T633.74,97.15Z"/><path d="M685.85,115.06V50.16h17.26V57a66,66,0,0,1,20.77-8.43V66.13q-10.51,2.2-18,4.54l-2.6.91v43.48Z"/><polygon class="cls-1" points="118.69 23.48 28.07 79.23 64 89.79 81.73 122.78 118.69 23.48"/><path class="cls-2" d="M112.55,31,80.79,116.31,66.34,89.4l-.81-1.49-1.62-.48L34.74,78.85,112.55,31m7.91-9.64L24.85,80.17,62.76,91.32l18.7,34.81,39-104.78Z"/></svg>